HIERARCHY
ROOT Hips
{
 OFFSET 0.000000 0.000000 0.000000
 CHANNELS 6 Xposition Yposition Zposition Yrotation Xrotation Zrotation
 JOINT Chest
 {
  OFFSET 0.000000 9.585900 0.002600
  CHANNELS 3 Yrotation Xrotation Zrotation
  JOINT Chest2
  {
   OFFSET 0.000000 9.601200 -0.005300
   CHANNELS 3 Yrotation Xrotation Zrotation
   JOINT Chest3
   {
    OFFSET 0.000000 9.561800 0.000000
    CHANNELS 3 Yrotation Xrotation Zrotation
    JOINT Chest4
    {
     OFFSET 0.000000 9.552100 0.000000
     CHANNELS 3 Yrotation Xrotation Zrotation
     JOINT Neck
     {
      OFFSET 0.000000 14.453000 0.000000
      CHANNELS 3 Yrotation Xrotation Zrotation
      JOINT Head
      {
       OFFSET 0.000000 8.936500 -0.011300
       CHANNELS 3 Yrotation Xrotation Zrotation
       End Site
       {
        OFFSET 0.000000 17.073600 -0.006000
       }
      }
     }
     JOINT RightCollar
     {
      OFFSET -2.921100 9.558500 0.000000
      CHANNELS 3 Yrotation Xrotation Zrotation
      JOINT RightShoulder
      {
       OFFSET -13.519700 0.000000 0.000000
       CHANNELS 3 Yrotation Xrotation Zrotation
       JOINT RightElbow
       {
        OFFSET 0.000000 -29.696600 0.000000
        CHANNELS 3 Yrotation Xrotation Zrotation
        JOINT RightWrist
        {
         OFFSET 0.000000 -24.004700 0.000000
         CHANNELS 3 Yrotation Xrotation Zrotation
         End Site
         {
          OFFSET 0.000000 -17.728500 0.000000
         }
        }
       }
      }
     }
     JOINT LeftCollar
     {
      OFFSET 2.921100 9.558500 0.000000
      CHANNELS 3 Yrotation Xrotation Zrotation
      JOINT LeftShoulder
      {
       OFFSET 13.519700 0.000000 0.000000
       CHANNELS 3 Yrotation Xrotation Zrotation
       JOINT LeftElbow
       {
        OFFSET 0.000000 -29.696600 0.000000
        CHANNELS 3 Yrotation Xrotation Zrotation
        JOINT LeftWrist
        {
         OFFSET 0.000000 -24.004700 0.000000
         CHANNELS 3 Yrotation Xrotation Zrotation
         End Site
         {
          OFFSET 0.000000 -17.728500 0.000000
         }
        }
       }
      }
     }
    }
   }
  }
 }
 JOINT RightHip
 {
  OFFSET -7.771700 -0.012900 -0.001300
  CHANNELS 3 Yrotation Xrotation Zrotation
  JOINT RightKnee
  {
   OFFSET 0.000000 -40.869800 0.001200
   CHANNELS 3 Yrotation Xrotation Zrotation
   JOINT RightAnkle
   {
    OFFSET 0.000000 -39.717900 0.002100
    CHANNELS 3 Yrotation Xrotation Zrotation
    JOINT RightToe
    {
     OFFSET 0.000000 -4.965400 11.033500
     CHANNELS 3 Yrotation Xrotation Zrotation
     End Site
     {
      OFFSET 0.000000 -1.423100 5.872300
     }
    }
   }
  }
 }
 JOINT LeftHip
 {
  OFFSET 7.771700 -0.012900 -0.001300
  CHANNELS 3 Yrotation Xrotation Zrotation
  JOINT LeftKnee
  {
   OFFSET 0.000000 -40.869800 0.001200
   CHANNELS 3 Yrotation Xrotation Zrotation
   JOINT LeftAnkle
   {
    OFFSET 0.000000 -39.717900 0.002100
    CHANNELS 3 Yrotation Xrotation Zrotation
    JOINT LeftToe
    {
     OFFSET 0.000000 -4.965400 11.033500
     CHANNELS 3 Yrotation Xrotation Zrotation
     End Site
     {
      OFFSET 0.000000 -1.423100 5.872300
     }
    }
   }
  }
 }
}
MOTION
Frames: 7
Frame Time: 0.008333
8.844660 53.934639 39.806484 170.635323 -41.447077 -5.015000 3.557904 21.436948 2.515065 0.422165 2.940135 0.246049 0.658932 4.817670 0.430690 2.839735 18.326042 1.978706 2.590071 14.440372 0.537581 4.606923 -8.953175 0.035406 -6.291265 -0.853946 -3.299025 -1.473013 -0.257727 5.888828 -155.769453 -80.011132 174.568809 1.017114 5.345773 -5.573275 -1.247502 0.435039 1.263233 6.774472 0.922158 1.725579 106.263361 -68.245247 -134.887276 -4.458977 -4.371738 20.831347 -4.767453 -46.218771 10.629457 -22.080522 80.095056 -19.082652 -4.852257 6.543187 0.058581 -0.086993 1.811327 -0.869101 1.900033 -36.200882 9.964083 65.637079 84.693140 55.618434 -5.441347 -11.112466 11.417320 0.020560 -0.030455 0.009983
8.832089 53.930983 39.811885 170.647043 -41.505969 -5.021094 3.582323 21.455617 2.508657 0.405626 2.968489 0.258668 0.677175 4.818791 0.426787 2.830125 18.347120 1.997416 2.567350 14.437044 0.537231 4.592751 -8.959777 0.038857 -6.299909 -0.885735 -3.298112 -1.534996 -0.233085 5.833100 -155.722778 -80.018282 174.549447 1.029111 5.448910 -5.498817 -1.264370 0.437411 1.232341 6.807123 0.874139 1.718084 106.298180 -68.113040 -134.992718 -4.411573 -4.418280 20.829399 -4.606177 -46.242750 10.516166 -23.110368 80.728470 -20.002325 -4.594270 5.694939 0.305878 -0.082821 1.639157 -0.805887 1.881947 -36.151164 9.947071 65.812625 84.675119 55.809883 -5.467868 -11.120150 11.392231 0.041480 -0.019050 0.016566
8.820031 53.925553 39.817789 170.648661 -41.541653 -5.019068 3.590992 21.482478 2.505341 0.401928 2.973251 0.261397 0.690471 4.819665 0.424574 2.847668 18.362101 2.010845 2.528899 14.431281 0.541362 4.579476 -8.964017 0.043109 -6.313037 -0.931573 -3.276215 -1.595697 -0.197324 5.778129 -155.707043 -80.121367 174.488626 0.991182 5.471036 -5.379484 -1.282370 0.439075 1.215576 6.838992 0.827535 1.703466 106.338155 -67.989212 -135.114108 -4.369657 -4.491646 20.851638 -4.426499 -46.301290 10.381694 -24.482446 81.394424 -21.248250 -4.321733 5.018667 0.645129 -0.079640 1.332685 -0.834890 1.869347 -36.125651 9.926448 66.019802 84.652837 56.032995 -5.488665 -11.129054 11.362335 0.055922 -0.005812 0.025244
8.812362 53.922858 39.820408 170.691609 -41.588566 -5.062380 3.578300 21.523977 2.523047 0.410249 2.970003 0.258661 0.693742 4.830734 0.430434 2.856480 18.367135 2.023258 2.511675 14.434580 0.553908 4.505101 -8.969581 0.082340 -6.321983 -0.961813 -3.259147 -1.625379 -0.173571 5.749349 -155.347595 -80.213388 174.084033 0.991049 5.502030 -5.302143 -1.268287 0.450062 1.188347 6.825859 0.790490 1.713171 106.456469 -67.870152 -135.283966 -4.343298 -4.598433 20.894612 -4.288686 -46.344206 10.257844 -25.993835 82.100352 -22.621470 -4.083386 4.510075 1.058156 -0.069243 0.921904 -0.928163 1.790426 -36.090209 9.930550 66.367672 84.621642 56.389211 -5.497128 -11.133942 11.326854 0.060171 -0.000787 0.027332
8.804973 53.919879 39.822235 170.717832 -41.625502 -5.090459 3.592496 21.556632 2.537871 0.416712 2.973058 0.260645 0.683400 4.832715 0.439056 2.852774 18.369421 2.029053 2.504017 14.433336 0.558156 4.484504 -8.967378 0.107512 -6.326287 -0.978169 -3.249065 -1.689717 -0.157688 5.700441 -154.575435 -80.283899 173.324998 0.995646 5.532282 -5.273396 -1.240443 0.452686 1.182055 6.843951 0.743942 1.677701 106.577769 -67.823337 -135.464078 -4.339891 -4.728550 20.948236 -4.136305 -46.397007 10.121381 -27.452075 82.855600 -23.937067 -3.909959 4.111323 1.513707 -0.047642 0.480791 -1.045863 1.724144 -36.061490 9.926586 66.698742 84.584235 56.727500 -5.499961 -11.144021 11.291218 0.067863 0.007817 0.026703
8.798590 53.918249 39.821667 170.738942 -41.667330 -5.113404 3.592853 21.596669 2.550468 0.413645 2.974703 0.262429 0.695029 4.829814 0.445680 2.851806 18.376282 2.028959 2.497380 14.432307 0.563163 4.471116 -8.960927 0.126554 -6.330697 -0.995043 -3.236773 -1.765429 -0.139073 5.642141 -153.686971 -80.354299 172.462304 1.002101 5.547494 -5.284865 -1.216955 0.452905 1.189136 6.855744 0.703643 1.624151 106.801241 -67.834026 -135.704801 -4.362341 -4.871234 21.001398 -3.975847 -46.433673 9.976776 -28.865523 83.653671 -25.203844 -3.796460 3.761621 1.972490 -0.018450 0.062521 -1.149699 1.674136 -36.021398 9.914119 66.980799 84.544150 57.023962 -5.499555 -11.171627 11.250020 0.063890 0.028465 0.030235
8.789810 53.915910 39.819980 170.749497 -41.700124 -5.108333 3.595041 21.616446 2.546487 0.415656 2.978935 0.264397 0.691048 4.830913 0.450765 2.902542 18.387364 2.062589 2.480039 14.454748 0.575728 4.427921 -8.980820 0.107982 -6.365789 -1.017004 -3.233039 -1.803681 -0.123381 5.606400 -153.167520 -80.449517 171.913295 1.011190 5.550155 -5.323539 -1.256626 0.449963 1.172800 6.865021 0.675964 1.576806 107.147508 -67.888415 -136.018902 -4.407639 -5.010339 21.045588 -3.791604 -46.463814 9.799061 -30.372686 84.480406 -26.561833 -3.721980 3.409618 2.394562 0.015604 -0.294207 -1.211489 1.648291 -35.986374 9.851373 67.352571 84.475501 57.417133 -5.482526 -11.206640 11.207914 0.043561 0.049907 0.023543
